<?xml version="1.0" encoding="UTF-8" standalone="no"?>
<!DOCTYPE svg PUBLIC "-//W3C//DTD SVG 1.1//EN"
 "http://www.w3.org/Graphics/SVG/1.1/DTD/svg11.dtd">
<!-- Generated by graphviz version 2.40.1 (20161225.0304)
 -->
<!-- Title: dependencies Pages: 1 -->
<svg width="1480pt" height="284pt"
 viewBox="0.00 0.00 1480.00 284.00" xmlns="http://www.w3.org/2000/svg" xmlns:xlink="http://www.w3.org/1999/xlink">
<g id="graph0" class="graph" transform="scale(1 1) rotate(0) translate(4 280)">
<title>dependencies</title>
<polygon fill="#ffffff" stroke="transparent" points="-4,4 -4,-280 1476,-280 1476,4 -4,4"/>
<text text-anchor="start" x="715.0091" y="-42.4" font-family="sans-serif" font-weight="bold" font-size="14.00" fill="#000000">Legend</text>
<polygon fill="#ffffb3" stroke="transparent" points="502,-10 502,-30 522,-30 522,-10 502,-10"/>
<text text-anchor="start" x="525.629" y="-15.4" font-family="sans-serif" font-size="14.00" fill="#000000"> &#160;Declarations</text>
<polygon fill="#8dd3c7" stroke="transparent" points="615,-10 615,-30 635,-30 635,-10 615,-10"/>
<text text-anchor="start" x="638.7251" y="-15.4" font-family="sans-serif" font-size="14.00" fill="#000000"> &#160;Module</text>
<polygon fill="#80b1d3" stroke="transparent" points="701,-10 701,-30 721,-30 721,-10 701,-10"/>
<text text-anchor="start" x="724.7812" y="-15.4" font-family="sans-serif" font-size="14.00" fill="#000000"> &#160;Bootstrap</text>
<polygon fill="#fdb462" stroke="transparent" points="798,-10 798,-30 818,-30 818,-10 798,-10"/>
<text text-anchor="start" x="821.6732" y="-15.4" font-family="sans-serif" font-size="14.00" fill="#000000"> &#160;Providers</text>
<polygon fill="#fb8072" stroke="transparent" points="894,-10 894,-30 914,-30 914,-10 894,-10"/>
<text text-anchor="start" x="917.7258" y="-15.4" font-family="sans-serif" font-size="14.00" fill="#000000"> &#160;Exports</text>
<g id="clust1" class="cluster">
<title>cluster_AuthModule</title>
<polygon fill="none" stroke="#000000" stroke-dasharray="1,5" points="8,-70 8,-268 1464,-268 1464,-70 8,-70"/>
</g>
<g id="clust2" class="cluster">
<title>cluster_AuthModule_declarations</title>
<polygon fill="none" stroke="#000000" points="558,-78 558,-130 1456,-130 1456,-78 558,-78"/>
</g>
<g id="clust9" class="cluster">
<title>cluster_AuthModule_imports</title>
<polygon fill="none" stroke="#000000" points="285,-78 285,-130 550,-130 550,-78 285,-78"/>
</g>
<g id="clust10" class="cluster">
<title>cluster_AuthModule_exports</title>
<polygon fill="none" stroke="#000000" points="579,-208 579,-260 845,-260 845,-208 579,-208"/>
</g>
<g id="clust12" class="cluster">
<title>cluster_AuthModule_providers</title>
<polygon fill="none" stroke="#000000" points="16,-78 16,-130 277,-130 277,-78 16,-78"/>
</g>
<!-- CapsLockDirective -->
<g id="node1" class="node">
<title>CapsLockDirective</title>
<polygon fill="#ffffb3" stroke="#000000" points="1448.3459,-122 1323.6541,-122 1323.6541,-86 1448.3459,-86 1448.3459,-122"/>
<text text-anchor="middle" x="1386" y="-99.8" font-family="Times,serif" font-size="14.00" fill="#000000">CapsLockDirective</text>
</g>
<!-- AuthModule -->
<g id="node7" class="node">
<title>AuthModule</title>
<polygon fill="#8dd3c7" stroke="#000000" points="761.5482,-187 758.5482,-191 737.5482,-191 734.5482,-187 674.4518,-187 674.4518,-151 761.5482,-151 761.5482,-187"/>
<text text-anchor="middle" x="718" y="-164.8" font-family="Times,serif" font-size="14.00" fill="#000000">AuthModule</text>
</g>
<!-- CapsLockDirective&#45;&gt;AuthModule -->
<g id="edge1" class="edge">
<title>CapsLockDirective&#45;&gt;AuthModule</title>
<path fill="none" stroke="#000000" d="M1386,-122.0109C1386,-144.4852 1386,-180 1386,-180 1386,-180 771.5717,-180 771.5717,-180"/>
<polygon fill="#000000" stroke="#000000" points="771.5717,-176.5001 761.5717,-180 771.5716,-183.5001 771.5717,-176.5001"/>
</g>
<!-- FeatureDisabledComponent -->
<g id="node2" class="node">
<title>FeatureDisabledComponent</title>
<polygon fill="#ffffb3" stroke="#000000" points="1305.5716,-122 1132.4284,-122 1132.4284,-86 1305.5716,-86 1305.5716,-122"/>
<text text-anchor="middle" x="1219" y="-99.8" font-family="Times,serif" font-size="14.00" fill="#000000">FeatureDisabledComponent</text>
</g>
<!-- FeatureDisabledComponent&#45;&gt;AuthModule -->
<g id="edge2" class="edge">
<title>FeatureDisabledComponent&#45;&gt;AuthModule</title>
<path fill="none" stroke="#000000" d="M1219,-122.1289C1219,-142.5724 1219,-173 1219,-173 1219,-173 771.584,-173 771.584,-173"/>
<polygon fill="#000000" stroke="#000000" points="771.5841,-169.5001 761.584,-173 771.584,-176.5001 771.5841,-169.5001"/>
</g>
<!-- LoginComponent -->
<g id="node3" class="node">
<title>LoginComponent</title>
<polygon fill="#ffffb3" stroke="#000000" points="1114.2758,-122 999.7242,-122 999.7242,-86 1114.2758,-86 1114.2758,-122"/>
<text text-anchor="middle" x="1057" y="-99.8" font-family="Times,serif" font-size="14.00" fill="#000000">LoginComponent</text>
</g>
<!-- LoginComponent&#45;&gt;AuthModule -->
<g id="edge3" class="edge">
<title>LoginComponent&#45;&gt;AuthModule</title>
<path fill="none" stroke="#000000" d="M1057,-122.2667C1057,-140.5552 1057,-166 1057,-166 1057,-166 771.6243,-166 771.6243,-166"/>
<polygon fill="#000000" stroke="#000000" points="771.6244,-162.5001 761.6243,-166 771.6243,-169.5001 771.6244,-162.5001"/>
</g>
<!-- LogoutComponent -->
<g id="node4" class="node">
<title>LogoutComponent</title>
<polygon fill="#ffffb3" stroke="#000000" points="981.7758,-122 860.2242,-122 860.2242,-86 981.7758,-86 981.7758,-122"/>
<text text-anchor="middle" x="921" y="-99.8" font-family="Times,serif" font-size="14.00" fill="#000000">LogoutComponent</text>
</g>
<!-- LogoutComponent&#45;&gt;AuthModule -->
<g id="edge4" class="edge">
<title>LogoutComponent&#45;&gt;AuthModule</title>
<path fill="none" stroke="#000000" d="M921,-122.0091C921,-138.0494 921,-159 921,-159 921,-159 771.5486,-159 771.5486,-159"/>
<polygon fill="#000000" stroke="#000000" points="771.5486,-155.5001 761.5486,-159 771.5486,-162.5001 771.5486,-155.5001"/>
</g>
<!-- RolesDirective -->
<g id="node5" class="node">
<title>RolesDirective</title>
<polygon fill="#ffffb3" stroke="#000000" points="841.9692,-122 742.0308,-122 742.0308,-86 841.9692,-86 841.9692,-122"/>
<text text-anchor="middle" x="792" y="-99.8" font-family="Times,serif" font-size="14.00" fill="#000000">RolesDirective</text>
</g>
<!-- RolesDirective&#45;&gt;AuthModule -->
<g id="edge5" class="edge">
<title>RolesDirective&#45;&gt;AuthModule</title>
<path fill="none" stroke="#000000" d="M751.8945,-122.1061C751.8945,-122.1061 751.8945,-140.991 751.8945,-140.991"/>
<polygon fill="#000000" stroke="#000000" points="748.3945,-140.9909 751.8945,-150.991 755.3945,-140.991 748.3945,-140.9909"/>
</g>
<!-- RolesMissingComponent -->
<g id="node6" class="node">
<title>RolesMissingComponent</title>
<polygon fill="#ffffb3" stroke="#000000" points="724.3342,-122 565.6658,-122 565.6658,-86 724.3342,-86 724.3342,-122"/>
<text text-anchor="middle" x="645" y="-99.8" font-family="Times,serif" font-size="14.00" fill="#000000">RolesMissingComponent</text>
</g>
<!-- RolesMissingComponent&#45;&gt;AuthModule -->
<g id="edge6" class="edge">
<title>RolesMissingComponent&#45;&gt;AuthModule</title>
<path fill="none" stroke="#000000" d="M699.1967,-122.1061C699.1967,-122.1061 699.1967,-140.991 699.1967,-140.991"/>
<polygon fill="#000000" stroke="#000000" points="695.6968,-140.9909 699.1967,-150.991 702.6968,-140.991 695.6968,-140.9909"/>
</g>
<!-- RolesDirective  -->
<g id="node10" class="node">
<title>RolesDirective </title>
<polygon fill="#fb8072" stroke="#000000" points="836.9703,-252 733.0297,-252 733.0297,-216 836.9703,-216 836.9703,-252"/>
<text text-anchor="middle" x="785" y="-229.8" font-family="Times,serif" font-size="14.00" fill="#000000">RolesDirective </text>
</g>
<!-- AuthModule&#45;&gt;RolesDirective  -->
<g id="edge9" class="edge">
<title>AuthModule&#45;&gt;RolesDirective </title>
<path fill="none" stroke="#000000" stroke-dasharray="5,2" d="M747.5195,-187.1061C747.5195,-187.1061 747.5195,-205.991 747.5195,-205.991"/>
<polygon fill="#000000" stroke="#000000" points="744.0195,-205.9909 747.5195,-215.991 751.0195,-205.991 744.0195,-205.9909"/>
</g>
<!-- CapsLockDirective  -->
<g id="node11" class="node">
<title>CapsLockDirective </title>
<polygon fill="#fb8072" stroke="#000000" points="715.3463,-252 586.6537,-252 586.6537,-216 715.3463,-216 715.3463,-252"/>
<text text-anchor="middle" x="651" y="-229.8" font-family="Times,serif" font-size="14.00" fill="#000000">CapsLockDirective </text>
</g>
<!-- AuthModule&#45;&gt;CapsLockDirective  -->
<g id="edge10" class="edge">
<title>AuthModule&#45;&gt;CapsLockDirective </title>
<path fill="none" stroke="#000000" stroke-dasharray="5,2" d="M694.6997,-187.1061C694.6997,-187.1061 694.6997,-205.991 694.6997,-205.991"/>
<polygon fill="#000000" stroke="#000000" points="691.1998,-205.9909 694.6997,-215.991 698.1998,-205.991 691.1998,-205.9909"/>
</g>
<!-- AuthRoutingModule -->
<g id="node8" class="node">
<title>AuthRoutingModule</title>
<polygon fill="#8dd3c7" stroke="#000000" points="542.1652,-122 539.1652,-126 518.1652,-126 515.1652,-122 409.8348,-122 409.8348,-86 542.1652,-86 542.1652,-122"/>
<text text-anchor="middle" x="476" y="-99.8" font-family="Times,serif" font-size="14.00" fill="#000000">AuthRoutingModule</text>
</g>
<!-- AuthRoutingModule&#45;&gt;AuthModule -->
<g id="edge7" class="edge">
<title>AuthRoutingModule&#45;&gt;AuthModule</title>
<path fill="none" stroke="#000000" d="M476,-122.0091C476,-138.0494 476,-159 476,-159 476,-159 664.1756,-159 664.1756,-159"/>
<polygon fill="#000000" stroke="#000000" points="664.1757,-162.5001 674.1756,-159 664.1756,-155.5001 664.1757,-162.5001"/>
</g>
<!-- SharedModule -->
<g id="node9" class="node">
<title>SharedModule</title>
<polygon fill="#8dd3c7" stroke="#000000" points="391.4231,-122 388.4231,-126 367.4231,-126 364.4231,-122 292.5769,-122 292.5769,-86 391.4231,-86 391.4231,-122"/>
<text text-anchor="middle" x="342" y="-99.8" font-family="Times,serif" font-size="14.00" fill="#000000">SharedModule</text>
</g>
<!-- SharedModule&#45;&gt;AuthModule -->
<g id="edge8" class="edge">
<title>SharedModule&#45;&gt;AuthModule</title>
<path fill="none" stroke="#000000" d="M342,-122.2667C342,-140.5552 342,-166 342,-166 342,-166 664.1321,-166 664.1321,-166"/>
<polygon fill="#000000" stroke="#000000" points="664.1322,-169.5001 674.1321,-166 664.1321,-162.5001 664.1322,-169.5001"/>
</g>
<!-- AuthGuard -->
<g id="node12" class="node">
<title>AuthGuard</title>
<ellipse fill="#fdb462" stroke="#000000" cx="215" cy="-104" rx="54.4566" ry="18"/>
<text text-anchor="middle" x="215" y="-99.8" font-family="Times,serif" font-size="14.00" fill="#000000">AuthGuard</text>
</g>
<!-- AuthGuard&#45;&gt;AuthModule -->
<g id="edge11" class="edge">
<title>AuthGuard&#45;&gt;AuthModule</title>
<path fill="none" stroke="#000000" d="M215,-122.1289C215,-142.5724 215,-173 215,-173 215,-173 664.242,-173 664.242,-173"/>
<polygon fill="#000000" stroke="#000000" points="664.242,-176.5001 674.242,-173 664.2419,-169.5001 664.242,-176.5001"/>
</g>
<!-- AuthService -->
<g id="node13" class="node">
<title>AuthService</title>
<ellipse fill="#fdb462" stroke="#000000" cx="83" cy="-104" rx="59.1083" ry="18"/>
<text text-anchor="middle" x="83" y="-99.8" font-family="Times,serif" font-size="14.00" fill="#000000">AuthService</text>
</g>
<!-- AuthService&#45;&gt;AuthModule -->
<g id="edge12" class="edge">
<title>AuthService&#45;&gt;AuthModule</title>
<path fill="none" stroke="#000000" d="M83,-122.0109C83,-144.4852 83,-180 83,-180 83,-180 664.3539,-180 664.3539,-180"/>
<polygon fill="#000000" stroke="#000000" points="664.3539,-183.5001 674.3539,-180 664.3538,-176.5001 664.3539,-183.5001"/>
</g>
</g>
</svg>
